<svg xmlns="http://www.w3.org/2000/svg" x="0px" y="0px"
width="50" height="50"
viewBox="0 0 172 172"
style=" fill:#000000;"><g transform="translate(4.988,4.988) scale(0.942,0.942)"><g fill="none" fill-rule="nonzero" stroke="none" stroke-width="none" stroke-linecap="butt" stroke-linejoin="none" stroke-miterlimit="10" stroke-dasharray="" stroke-dashoffset="0" font-family="none" font-weight="none" font-size="none" text-anchor="none" style="mix-blend-mode: normal"><g fill="#000000" stroke="#d8e3e7" stroke-width="10" stroke-linejoin="round"><path d="M116.63855,77.26563l8.46405,8.46667c0.5375,0.5375 0.9401,1.47708 0.80573,2.28333c-0.5375,4.3 -4.70208,5.23958 -6.98645,2.9552l-2.55365,-2.55103c-1.075,-1.20937 -2.82188,-1.21147 -4.03125,-0.13647l-1.07343,0.9422c-1.34375,1.34375 -1.34427,3.49427 0.13385,4.56927c0.40312,0.26875 0.6703,0.67083 1.07343,0.93958l12.63177,12.09375c0.26875,0.13437 0.67345,0.40365 0.9422,0.53803c6.85313,2.95625 13.70415,0.26875 16.6604,-5.375c1.88125,-3.62813 5.51147,-5.91303 9.54272,-5.91303h0.13385c3.89688,0 7.65885,2.14895 9.5401,5.6427c0.94063,1.74688 1.47917,3.49375 1.74792,5.375l2.82135,20.0224c0.67188,5.10625 0,10.34845 -2.01562,15.05157c-0.40312,0.80625 -0.40312,1.74478 0,2.55103l6.18073,12.23022c0.5375,1.20938 0.26927,2.82083 -0.80573,3.62708c-12.76562,10.07813 -30.23542,10.07813 -109.24792,10.07813c-39.10312,0 -50.39062,-5.37605 -55.76562,-13.84167c-2.15,-3.49375 -3.35937,-7.65728 -3.35937,-11.95728c0,-9.27187 6.98697,-17.20157 16.25885,-18.41095l23.9198,-2.9552c0.94062,-0.13438 1.8802,-0.67135 2.28333,-1.4776c2.41875,-4.3 8.60105,-2.41927 7.7948,2.82135c0,0.94063 -0.67187,1.6125 -1.34375,2.01563c-1.20938,0.80625 -2.55365,1.47813 -3.8974,2.01563c-1.20937,0.5375 -1.74582,1.7453 -1.61145,3.08905v0.53802c0,6.9875 -5.64428,12.63178 -12.63178,12.63178h-19.21667c-1.88125,0 -3.35885,1.8823 -2.82135,3.76355c0.40312,1.34375 0.9422,2.68593 1.61407,3.76093c3.35937,5.375 11.69062,10.34845 49.04687,10.34845c61.94687,0 85.5953,-0.0021 97.82343,-4.8396c1.6125,-0.67188 2.28385,-2.55313 1.4776,-4.03125l-4.29895,-8.5979c-0.5375,-1.075 -1.47813,-1.74792 -2.6875,-1.74792h-23.24792c-1.34375,0 -2.6854,-0.00052 -3.89478,0.13385h-0.53802l-4.03125,0.40417c-8.19688,0.80625 -15.31823,2.2849 -22.30573,3.8974c-3.35937,0.80625 -6.58647,-2.41927 -4.8396,-6.5849c0.40312,-0.94062 1.075,-1.47917 2.01563,-1.74792c6.9875,-1.6125 14.2448,-3.22448 22.57605,-4.1651c3.7625,-0.40312 6.98645,-4.29895 4.97083,-9.67395c-0.26875,-0.80625 -1.0729,-1.47917 -1.87915,-1.74792c-3.89688,-1.34375 -7.39167,-3.4948 -10.4823,-6.45105c-1.74687,-1.6125 -1.7474,-4.5677 0.13385,-6.31458c0,-0.13438 0.4026,-0.4026 0.80573,-0.80572c1.34375,-1.20937 1.34585,-3.22605 0.13647,-4.43543l-7.66095,-7.39062c-1.20938,-1.075 -3.0901,-1.20938 -4.1651,0c-2.55312,2.6875 -7.2573,1.075 -7.12292,-3.35937c0,-0.80625 0.4047,-1.47813 0.9422,-2.01562l1.07343,-1.07343l16.93335,-15.31927c0.5375,-0.5375 1.27656,-0.77371 2.01563,-0.74011c0.73906,0.03359 1.47812,0.33646 2.01563,0.87396zM87.88178,98.36145c0,2.28437 -1.74687,4.03125 -4.03125,4.03125c-1.20937,0 -1.61303,0.94115 -1.88178,1.2099c-0.13438,0.40313 -0.40208,1.34323 0.40417,2.14948c1.6125,1.47812 1.6125,4.03282 0,5.64532c-0.80625,0.80625 -1.88335,1.2099 -2.82397,1.2099c-0.94062,0 -2.0151,-0.40365 -2.82135,-1.2099c-2.82188,-2.82188 -3.76197,-7.12135 -2.14947,-10.88385c1.6125,-3.7625 5.24115,-6.18335 9.2724,-6.18335c2.28438,0 4.03125,1.74688 4.03125,4.03125zM69.06928,108.57605c0,2.28438 -1.74688,4.03125 -4.03125,4.03125c-1.20938,0 -1.7474,0.80415 -1.88178,1.20728c-0.13438,0.40313 -0.40208,1.34585 0.40417,2.1521c1.6125,1.47812 1.6125,4.0302 0,5.6427c-0.80625,0.80625 -1.88335,1.2099 -2.82397,1.2099c-0.94063,0 -2.0151,-0.40365 -2.82135,-1.2099c-2.82188,-2.82187 -3.76197,-7.12135 -2.14947,-10.88385c1.6125,-3.7625 5.24115,-6.18073 9.2724,-6.18073c2.28437,0 4.03125,1.74687 4.03125,4.03125z"></path></g><path d="M0,172v-172h172v172z" fill="none" stroke="none" stroke-width="1" stroke-linejoin="miter"></path><path d="" fill="none" stroke="none" stroke-width="1" stroke-linejoin="miter"></path><g fill="#51c4d3" stroke="none" stroke-width="1" stroke-linejoin="miter"><path d="M114.62292,76.39166c-0.73906,-0.03359 -1.47813,0.20261 -2.01562,0.74011l-16.93335,15.31927l-1.07343,1.07343c-0.5375,0.5375 -0.9422,1.20938 -0.9422,2.01563c-0.13437,4.43438 4.5698,6.04688 7.12292,3.35938c1.075,-1.20938 2.95572,-1.075 4.1651,0l7.66095,7.39063c1.20938,1.20937 1.20728,3.22605 -0.13647,4.43543c-0.40313,0.40312 -0.80573,0.67135 -0.80573,0.80572c-1.88125,1.74687 -1.88072,4.70208 -0.13385,6.31458c3.09062,2.95625 6.58542,5.1073 10.4823,6.45105c0.80625,0.26875 1.6104,0.94167 1.87915,1.74792c2.01563,5.375 -1.20833,9.27083 -4.97083,9.67395c-8.33125,0.94062 -15.58855,2.5526 -22.57605,4.1651c-0.94063,0.26875 -1.6125,0.8073 -2.01562,1.74792c-1.74688,4.16563 1.48022,7.39115 4.8396,6.5849c6.9875,-1.6125 14.10885,-3.09115 22.30573,-3.8974l4.03125,-0.40417h0.53802c1.20938,-0.13437 2.55103,-0.13385 3.89478,-0.13385h0.27032h0.13385h0.13385h1.34375h0.53803h20.82812c1.20938,0 2.15,0.67292 2.6875,1.74792l4.29895,8.5979c0.80625,1.47812 0.1349,3.35937 -1.4776,4.03125c-12.22812,4.8375 -35.87655,4.8396 -97.82343,4.8396c-37.35625,0 -45.6875,-4.97345 -49.04687,-10.34845c-0.67187,-1.075 -1.21095,-2.41718 -1.61407,-3.76093c-0.5375,-1.88125 0.9401,-3.76355 2.82135,-3.76355h19.21667c6.9875,0 12.63178,-5.64427 12.63178,-12.63178v-0.53802c-0.13438,-1.34375 0.40207,-2.55155 1.61145,-3.08905c1.34375,-0.5375 2.68803,-1.20937 3.8974,-2.01562c0.67188,-0.40312 1.34375,-1.075 1.34375,-2.01562c0.80625,-5.24062 -5.37605,-7.12135 -7.7948,-2.82135c-0.40313,0.80625 -1.3427,1.34323 -2.28333,1.4776l-23.9198,2.9552c-9.27188,1.20938 -16.25885,9.13907 -16.25885,18.41095c0,4.3 1.20937,8.46353 3.35938,11.95728c5.375,8.46562 16.6625,13.84167 55.76562,13.84167c79.0125,0 96.4823,0 109.24792,-10.07813c1.075,-0.80625 1.34323,-2.4177 0.80573,-3.62708l-6.18073,-12.23022c-0.40312,-0.80625 -0.40312,-1.74478 0,-2.55103c2.01563,-4.70313 2.6875,-9.94532 2.01563,-15.05157l-2.82135,-20.0224c-0.26875,-1.88125 -0.8073,-3.62813 -1.74792,-5.375c-1.88125,-3.49375 -5.64323,-5.6427 -9.5401,-5.6427h-0.13385c-4.03125,0 -7.66147,2.2849 -9.54272,5.91303c-2.95625,5.64375 -9.80728,8.33125 -16.6604,5.375c-0.26875,-0.13438 -0.67345,-0.40365 -0.9422,-0.53803l-12.63177,-12.09375c-0.40313,-0.26875 -0.6703,-0.67083 -1.07343,-0.93958c-1.47812,-1.075 -1.4776,-3.22552 -0.13385,-4.56927l1.07343,-0.9422c1.20938,-1.075 2.95625,-1.0729 4.03125,0.13647l2.55365,2.55103c2.28437,2.28438 6.44895,1.3448 6.98645,-2.9552c0.13438,-0.80625 -0.26823,-1.74583 -0.80573,-2.28333l-8.46405,-8.46667c-0.5375,-0.5375 -1.27656,-0.84037 -2.01562,-0.87396zM83.85053,94.3302c-4.03125,0 -7.6599,2.42085 -9.2724,6.18335c-1.6125,3.7625 -0.6724,8.06198 2.14947,10.88385c0.80625,0.80625 1.88073,1.2099 2.82135,1.2099c0.94063,0 2.01772,-0.40365 2.82397,-1.2099c1.6125,-1.6125 1.6125,-4.1672 0,-5.64532c-0.80625,-0.80625 -0.53855,-1.74635 -0.40417,-2.14948c0.26875,-0.26875 0.6724,-1.2099 1.88178,-1.2099c2.28438,0 4.03125,-1.74688 4.03125,-4.03125c0,-2.28438 -1.74687,-4.03125 -4.03125,-4.03125zM65.03803,104.5448c-4.03125,0 -7.6599,2.41823 -9.2724,6.18073c-1.6125,3.7625 -0.6724,8.06197 2.14947,10.88385c0.80625,0.80625 1.88073,1.2099 2.82135,1.2099c0.94062,0 2.01772,-0.40365 2.82397,-1.2099c1.6125,-1.6125 1.6125,-4.16458 0,-5.6427c-0.80625,-0.80625 -0.53855,-1.74897 -0.40417,-2.1521c0.13437,-0.40312 0.6724,-1.20728 1.88178,-1.20728c2.28437,0 4.03125,-1.74687 4.03125,-4.03125c0,-2.28438 -1.74688,-4.03125 -4.03125,-4.03125z"></path></g><path d="" fill="none" stroke="none" stroke-width="1" stroke-linejoin="miter"></path><path d="" fill="none" stroke="none" stroke-width="1" stroke-linejoin="miter"></path></g></g></svg>